<svg viewBox="0 0 800 800" xmlns="http://www.w3.org/2000/svg"><path d="M261.46980125826025,342.57772237470596 L257.27588793958716,350.7642221784593 M261.46980125826025,342.57772237470596 L249.76406439960698,336.0055637155881 M249.76406439960698,336.0055637155881 L238.4056139754452,329.56482154327006 M238.4056139754452,329.56482154327006 L227.41924473134287,323.26971888779354 M227.41924473134287,323.26971888779354 L216.82871664533195,317.1340502478026 M216.82871664533195,317.1340502478026 L206.65670093565927,311.1711491425727 M206.65670093565927,311.1711491425727 L196.92473164651966,305.3938571990433 M196.92473164651966,305.3938571990433 L192.75825713137675,313.5379336662523 M192.75825713137675,313.5379336662523 L202.48514393197956,319.3234660750785 M202.48514393197956,319.3234660750785 L212.65226566216324,325.2941638242914 M212.65226566216324,325.2941638242914 L223.23810018568247,331.43716629539864 M223.23810018568247,331.43716629539864 L234.21998747894963,337.73912222445944 M234.21998747894963,337.73912222445944 L245.57417832050572,344.1862203342471 M245.57417832050572,344.1862203342471 L257.27588793958716,350.7642221784593 M262.2258614463082,343.28390701418755 L260.82721792630315,346.01400348746745 M261.0167999037797,346.08475693310163 L260.95817190180713,346.0637567297702 M260.95817190180713,346.0637567297702 L260.89493225767194,346.04015597633526 M260.89493225767194,346.04015597633526 L260.82721792630315,346.01400348746745 M261.0167999037797,346.08475693310163 L258.2197923422171,351.54438280832875 M258.2197923422171,351.54438280832875 L258.43237461278943,351.6071313381065 M258.43237461278943,351.6071313381065 L258.5269478414886,351.60672239468676 M258.5269478414886,351.60672239468676 L258.49881334688575,351.5431869272699 M258.49881334688575,351.5431869272699 L258.3493983366063,351.41970569435796 M258.3493983366063,351.41970569435796 L258.086175032473,351.24244729358105 M258.086175032473,351.24244729358105 L257.7222877488451,351.02025898970754 M257.7222877488451,351.02025898970754 L257.27588793958716,350.7642221784593 M262.2258614463082,343.28390701418755 L262.5273726828325,343.39161654815587 M262.5273726828325,343.39161654815587 L262.6947217941828,343.425949529516 M262.6947217941828,343.425949529516 L262.7180293189141,343.38488932493055 M262.7180293189141,343.38488932493055 L262.5959418830056,343.2708800637992 M262.5959418830056,343.2708800637992 L262.33571503084187,343.09068504847494 M262.33571503084187,343.09068504847494 L261.9527783847271,342.85498245669817 M261.9527783847271,342.85498245669817 L261.46980125826025,342.57772237470596 M261.52071823404515,339.69576906006586 L249.7152514785052,333.0698735466222 M249.7152514785052,333.0698735466222 L238.26019106099596,326.5767861332401 M238.26019106099596,326.5767861332401 L227.18055291614326,320.23085139175504 M227.18055291614326,320.23085139175504 L216.5003047421008,314.04598051786104 M216.5003047421008,314.04598051786104 L206.24231495149985,308.0356169879636 M206.24231495149985,308.0356169879636 L196.4283010530479,302.212707353296 M196.4283010530479,302.212707353296 L196.78564662613547,302.4381636293029 M196.78564662613547,302.4381636293029 L197.06235133157963,302.77483573949576 M197.06235133157963,302.77483573949576 L197.24455601192693,303.2058311830311 M197.24455601192693,303.2058311830311 L197.32313630292236,303.7095336704035 M197.32313630292236,303.7095336704035 L197.29416524184927,304.2606872785005 M197.29416524184927,304.2606872785005 L197.15910389280572,304.83166670480324 M197.15910389280572,304.83166670480324 L196.92473164651966,305.3938571990433 M261.52071823404515,339.69576906006586 L261.75788311684545,339.8521294522476 M261.75788311684545,339.8521294522476 L261.92002533538005,340.1238153881415 M261.92002533538005,340.1238153881415 L261.99902676044036,340.4971867682899 M261.99902676044036,340.4971867682899 L261.9909424844707,340.9535167896947 M261.9909424844707,340.9535167896947 L261.89618969071716,341.4699236167525 M261.89618969071716,341.4699236167525 L261.71952413175694,342.0205238361004 M261.71952413175694,342.0205238361004 L261.46980125826025,342.57772237470596 M192.75825713137675,313.5379336662523 L192.33322460028762,313.29116774406174 M192.33322460028762,313.29116774406174 L191.8422705810941,313.0200488745551 M191.8422705810941,313.0200488745551 L191.309868641921,312.73809070228526 M191.309868641921,312.73809070228526 L190.76255764067565,312.45934816323967 M190.76255764067565,312.45934816323967 L190.22761708356808,312.19771418055717 M190.22761708356808,312.19771418055717 L189.73171135608618,311.9662310510898 M189.73171135608618,311.9662310510898 L189.29956230533497,311.77643903841977 M192.07702454830553,306.34703348057224 L189.29956230533497,311.77643903841977 M191.84777255300418,306.2531876136323 L191.92013370415043,306.282094197868 M191.92013370415043,306.282094197868 L191.9966085683099,306.3133993415284 M191.9966085683099,306.3133993415284 L192.07702454830553,306.34703348057224 M193.23663611809616,303.5382129137603 L191.84777255300418,306.2531876136323 M196.92473164651966,305.3938571990433 L196.45772703976257,305.1238463467376 M196.45772703976257,305.1238463467376 L195.91501313529955,304.8262042945848 M195.91501313529955,304.8262042945848 L195.3286930073192,304.5185364722653 M195.3286930073192,304.5185364722653 L194.73345735418138,304.21904665569826 M194.73345735418138,304.21904665569826 L194.1645201098512,303.9454524170182 M194.1645201098512,303.9454524170182 L193.65553744323182,303.71393932521903 M193.65553744323182,303.71393932521903 L193.23663611809616,303.5382129137603 M189.7607381930078,315.24603655976966 L190.18103756636816,315.3483340020766 M190.18103756636816,315.3483340020766 L190.64290236997778,315.3229773399901 M190.64290236997778,315.3229773399901 L191.12317691026266,315.17125523105614 M191.12317691026266,315.17125523105614 L191.5977838906643,314.9007848085623 M191.5977838906643,314.9007848085623 L192.04293766155297,314.52513182044163 M192.04293766155297,314.52513182044163 L192.43633179282705,314.06312902895337 M192.43633179282705,314.06312902895337 L192.75825713137675,313.5379336662523 M254.8088725593708,352.79756773532876 L243.00990476908783,346.1622416430395 M243.00990476908783,346.1622416430395 L231.5617190776245,339.65889585765837 M231.5617190776245,339.65889585765837 L220.4893141438958,333.3019003027683 M220.4893141438958,333.3019003027683 L209.81664094587444,327.10519276525616 M209.81664094587444,327.10519276525616 L199.56654915171544,321.08224591619245 M199.56654915171544,321.08224591619245 L189.7607381930078,315.24603655976966 M254.8088725593708,352.79756773532876 L255.10949154273544,352.82999497303507 M255.10949154273544,352.82999497303507 L255.45809717063935,352.7376362914437 M255.45809717063935,352.7376362914437 L255.8372057551801,352.5251395380592 M255.8372057551801,352.5251395380592 L256.2278152685223,352.2031724780305 M256.2278152685223,352.2031724780305 L256.6103504673537,351.78788174476216 M256.6103504673537,351.78788174476216 L256.96564304226587,351.30008405775646 M256.96564304226587,351.30008405775646 L257.27588793958716,350.7642221784593 M257.7292839929307,351.3561757948208 L257.9401981670378,351.4386560767722 M260.73732939547904,345.9787585742532 L257.9401981670378,351.4386560767722 M260.82721792630315,346.01400348746745 L260.73732939547904,345.9787585742532 M261.9252025183972,343.16586361174933 L262.2258614463082,343.28390701418755 M261.9252025183972,343.16586361174933 L257.7292839929307,351.3561757948208 M260.73732939547904,345.9787585742532 L249.94131535842956,339.92769411134026 M249.94131535842956,339.92769411134026 L239.42881643083496,333.98268942793726 M239.42881643083496,333.98268942793726 L229.21878973171954,328.15458597310436 M229.21878973171954,328.15458597310436 L219.3294939049626,322.45393945265977 M219.3294939049626,322.45393945265977 L209.7784595303085,316.89100046913575 M209.7784595303085,316.89100046913575 L200.58245074941783,311.4756910229288 M200.58245074941783,311.4756910229288 L191.75743736888154,306.21758798311276 M191.75743736888154,306.21758798311276 L191.84777255300418,306.2531876136323 M192.07702454830553,306.34703348057224 L200.89589853433625,311.6016258786889 M200.89589853433625,311.6016258786889 L210.08594503869648,317.0135018040663 M210.08594503869648,317.0135018040663 L219.6311721792719,322.573072482273 M219.6311721792719,322.573072482273 L229.51479018733107,328.270399818508 M229.51479018733107,328.270399818508 L239.7192427083496,334.0952184613897 M239.7192427083496,334.0952184613897 L250.2262402221491,340.03695645345624 M250.2262402221491,340.03695645345624 L261.0167999037797,346.08475693310163 M189.29956230533497,311.77643903841977 L189.05754377339133,312.36656644846255 M189.05754377339133,312.36656644846255 L188.92018703841376,312.9799859915058 M188.92018703841376,312.9799859915058 L188.8950418177975,313.5838242302447 M188.8950418177975,313.5838242302447 L188.98370495374928,314.14573833220777 M188.98370495374928,314.14573833220777 L189.1816862325727,314.6356428471895 M189.1816862325727,314.6356428471895 L189.43816828757082,314.98619418623207 M189.43816828757082,314.98619418623207 L189.7607381930078,315.24603655976966 M254.8088725593708,352.79756773532876 L255.3374352933712,353.0083625977042 M255.3374352933712,353.0083625977042 L255.90574364628895,353.07595695149007 M255.90574364628895,353.07595695149007 L256.4831326731806,352.9966648942289 M256.4831326731806,352.9966648942289 L257.0383921543912,352.7746786134232 M257.0383921543912,352.7746786134232 L257.5414874929135,352.421862881794 M257.5414874929135,352.421862881794 L257.9193050475297,352.0180927475207 M257.9193050475297,352.0180927475207 L258.2197923422171,351.54438280832875 M261.52071823404515,339.69576906006586 L261.92613163823444,340.00899621555607 M261.92613163823444,340.00899621555607 L262.2481235765589,340.429742160971 M262.2481235765589,340.429742160971 L262.47053867615114,340.93691579095076 M262.47053867615114,340.93691579095076 L262.58221198679416,341.5050824049292 M262.58221198679416,341.5050824049292 L262.577533204399,342.1057464567205 M262.577533204399,342.1057464567205 L262.45673093459874,342.70877230964413 M262.45673093459874,342.70877230964413 L262.2258614463082,343.28390701418755 M261.22006984273514,339.57757205902516 L261.52071823404515,339.69576906006586 M261.22006984273514,339.57757205902516 L249.41570451048057,332.9519937520349 M249.41570451048057,332.9519937520349 L237.96131825807782,326.4590826509238 M237.96131825807782,326.4590826509238 L226.88183902071012,320.11313541923084 M226.88183902071012,320.11313541923084 L216.20116040483242,313.9280197198795 M216.20116040483242,313.9280197198795 L205.94207886506769,307.91713810126964 M205.94207886506769,307.91713810126964 L196.12624152404072,302.09339348610865 M196.4283010530479,302.212707353296 L196.12624152404072,302.09339348610865 M196.4283010530479,302.212707353296 L195.964844179593,302.0251532430645 M195.964844179593,302.0251532430645 L195.46197085761372,301.9695627635467 M195.46197085761372,301.9695627635467 L194.944895539907,302.0487075095192 M194.944895539907,302.0487075095192 L194.43954118643268,302.25860476688496 M194.43954118643268,302.25860476688496 L193.97123700684057,302.5887236416488 M193.97123700684057,302.5887236416488 L193.56345668630973,303.022508155905 M193.56345668630973,303.022508155905 L193.23663611809616,303.5382129137603 M188.97986409300955,311.64724532395337 L188.76790355227433,311.56393103390934 M192.9344821399239,303.4189843085189 L188.76790355227433,311.56393103390934 M193.23663611809616,303.5382129137603 L192.9344821399239,303.4189843085189 M191.75743736888154,306.21758798311276 L188.97986409300955,311.64724532395337 M254.50793792030527,352.6800066094251 L255.03342973760817,352.8914237468878 M255.03342973760817,352.8914237468878 L255.57940331149211,352.9635023933277 M255.57940331149211,352.9635023933277 L256.1115432443818,352.9068773663323 M256.1115432443818,352.9068773663323 L256.5994239601099,352.7431780493124 M256.5994239601099,352.7431780493124 L257.03310945875137,352.49396685707484 M257.03310945875137,352.49396685707484 L257.40872843086913,352.17514225926294 M257.40872843086913,352.17514225926294 L257.7027864934036,351.8271359735063 M257.7027864934036,351.8271359735063 L257.9401981670378,351.4386560767722 M254.50793792030527,352.6800066094251 L254.97617200236039,352.8705102366508 M254.97617200236039,352.8705102366508 L255.48406401625834,352.92828831353177 M255.48406401625834,352.92828831353177 L256.00614856170534,352.8504306092607 M256.00614856170534,352.8504306092607 L256.51624145792545,352.6408284285824 M256.51624145792545,352.6408284285824 L256.98875479694095,352.309984639399 M256.98875479694095,352.309984639399 L257.3999804426312,351.8744863607994 M257.3999804426312,351.8744863607994 L257.7292839929307,351.3561757948208 M189.45839624728472,315.12735193126707 L189.09730609993528,314.82746755303174 M189.09730609993528,314.82746755303174 L188.82848169971305,314.43055686191906 M188.82848169971305,314.43055686191906 L188.65767585776092,313.97023533964955 M188.65767585776092,313.97023533964955 L188.58117620157873,313.4833352840856 M188.58117620157873,313.4833352840856 L188.58723521387418,312.99021049911886 M188.58723521387418,312.99021049911886 L188.66583252998777,312.50309316801014 M188.66583252998777,312.50309316801014 L188.79733018215381,312.0643086145382 M188.79733018215381,312.0643086145382 L188.97986409300955,311.64724532395337 M254.50793792030527,352.6800066094251 L242.7100742984565,346.04499281553825 M242.7100742984565,346.04499281553825 L231.26256392420902,339.5418205734854 M231.26256392420902,339.5418205734854 L220.1903190480068,333.18481088610685 M220.1903190480068,333.18481088610685 L209.51721539496407,326.98785817124696 M209.51721539496407,326.98785817124696 L199.26603193921437,320.96439384988037 M199.26603193921437,320.96439384988037 L189.45839624728472,315.12735193126707 M261.22006984273514,339.57757205902516 L261.6254908713419,339.8908101271548 M261.6254908713419,339.8908101271548 L261.947487952851,340.3115720763239 M261.947487952851,340.3115720763239 L262.16990483576694,340.81876635878467 M262.16990483576694,340.81876635878467 L262.28157647951895,341.38695723825214 M262.28157647951895,341.38695723825214 L262.2768932827941,341.9876475916 M262.2768932827941,341.9876475916 L262.15608286361123,342.590701163255 M262.15608286361123,342.590701163255 L261.9252025183972,343.16586361174933 M258.7525313408283,341.6088131714743 L254.55645790048715,349.7999602195609 M254.55645790048715,349.7999602195609 L255.09938319892234,350.0965096482814 M255.09938319892234,350.0965096482814 L255.68027027586618,350.4002942551441 M255.68027027586618,350.4002942551441 L256.26605736263434,350.6940236053193 M256.26605736263434,350.6940236053193 L256.82339656914394,350.9609761211944 M256.82339656914394,350.9609761211944 L257.3205677303191,351.1859596846344 M257.3205677303191,351.1859596846344 L257.7292839929307,351.3561757948208 M258.7525313408283,341.6088131714743 L259.29559622283773,341.90518330233175 M259.29559622283773,341.90518330233175 L259.8765579586263,342.2089203552425 M259.8765579586263,342.2089203552425 L260.46235189661184,342.5027357237958 M260.46235189661184,342.5027357237958 L261.0196283801673,342.7699027597486 M261.0196283801673,342.7699027597486 L261.51667156996245,342.99521844975976 M261.51667156996245,342.99521844975976 L261.9252025183972,343.16586361174933 M258.7525313408283,341.6088131714743 L246.85100908918304,334.9260295054602 M246.85100908918304,334.9260295054602 L235.30272273253996,328.37699416721244 M235.30272273253996,328.37699416721244 L224.13281436988302,321.976133635869 M224.13281436988302,321.976133635869 L213.36537891845938,315.73744211837897 M213.36537891845938,315.73744211837897 L203.02340331667813,309.6744433219948 M203.02340331667813,309.6744433219948 L193.128709617732,303.8001563617695 M193.128709617732,303.8001563617695 L193.450794834332,303.27468100483475 M193.450794834332,303.27468100483475 L193.84435229334207,302.81254683338153 M193.84435229334207,302.81254683338153 L194.28963040467784,302.4369371244037 M194.28963040467784,302.4369371244037 L194.764289149151,302.166691377431 M194.764289149151,302.166691377431 L195.24451574896096,302.01535961928954 M195.24451574896096,302.01535961928954 L195.70621705937015,301.9905165533554 M195.70621705937015,301.9905165533554 L196.12624152404072,302.09339348610865 M258.7525313408283,341.6088131714743 L259.0629807276817,341.07264084762335 M259.0629807276817,341.07264084762335 L259.41848764304575,340.5847203633337 M259.41848764304575,340.5847203633337 L259.80121357843774,340.1695351456522 M259.80121357843774,340.1695351456522 L260.19194989068484,339.84790871996216 M260.19194989068484,339.84790871996216 L260.57109116488465,339.63596751600966 M260.57109116488465,339.63596751600966 L260.91962409979726,339.54433001127916 M260.91962409979726,339.54433001127916 L261.22006984273514,339.57757205902516 M196.12624152404072,302.09339348610865 L195.6627734511535,301.9058353402953 M195.6627734511535,301.9058353402953 L195.1598874298653,301.8502466048953 M195.1598874298653,301.8502466048953 L194.6427979300433,301.9293991413611 M194.6427979300433,301.9293991413611 L194.1374286224895,302.13930984377066 M194.1374286224895,302.13930984377066 L193.66911008590853,302.46944678795495 M193.66911008590853,302.46944678795495 L193.26131551590885,302.9032537829126 M193.26131551590885,302.9032537829126 L192.9344821399239,303.4189843085189 M189.45839624728472,315.12735193126707 L189.05791057976398,314.8167974992103 M189.05791057976398,314.8167974992103 L188.74021560343567,314.3993132517196 M188.74021560343567,314.3993132517196 L188.52122629282195,313.8958374341101 M188.52122629282195,313.8958374341101 L188.41191155400628,313.3316144518085 M188.41191155400628,313.3316144518085 L188.417742326184,312.73492888105335 M188.417742326184,312.73492888105335 L188.53842308661189,312.1356896412871 M188.53842308661189,312.1356896412871 L188.76790355227433,311.56393103390934 M193.128709617732,303.8001563617695 L188.96055313674384,311.94813594800274 M188.96055313674384,311.94813594800274 L188.60322263615694,311.7252915763353 M188.60322263615694,311.7252915763353 L188.36568228091596,311.5569874772891 M188.36568228091596,311.5569874772891 L188.26142115478422,311.45278685142637 M188.26142115478422,311.45278685142637 L188.29634722416955,311.41860613591143 M188.29634722416955,311.41860613591143 L188.46844576861014,311.45637487072287 M188.46844576861014,311.45637487072287 L188.76790355227433,311.56393103390934 M193.128709617732,303.8001563617695 L192.77113610725348,303.5777241491321 M192.77113610725348,303.5777241491321 L192.53332314475756,303.4099092004071 M192.53332314475756,303.4099092004071 L192.42877669418317,303.3062460063935 M192.42877669418317,303.3062460063935 L192.46341957399005,303.27262024345237 M192.46341957399005,303.27262024345237 L192.63525392662615,303.31093121288677 M192.63525392662615,303.31093121288677 L192.9344821399239,303.4189843085189 M254.55645790048715,349.7999602195609 L254.3067070975531,350.3573488395287 M254.3067070975531,350.3573488395287 L254.1301731585703,350.90800573330165 M254.1301731585703,350.90800573330165 L254.0357119043776,351.42430282149206 M254.0357119043776,351.42430282149206 L254.02805129028565,351.8803382564059 M254.02805129028565,351.8803382564059 L254.10756313773004,352.25324180637557 M254.10756313773004,352.25324180637557 L254.27025025100818,352.52432446882955 M254.27025025100818,352.52432446882955 L254.50793792030527,352.6800066094251 M188.96055313674384,311.94813594800274 L188.72615866850833,312.51046865457164 M188.72615866850833,312.51046865457164 L188.591192704481,313.08147313539973 M188.591192704481,313.08147313539973 L188.56241793856452,313.63249958667853 M188.56241793856452,313.63249958667853 L188.64127175189248,314.1359083040666 M188.64127175189248,314.1359083040666 L188.82378862631788,314.5664535970871 M188.82378862631788,314.5664535970871 L189.10079731359025,314.9025483114197 M189.10079731359025,314.9025483114197 L189.45839624728472,315.12735193126707 M188.96055313674384,311.94813594800274 L198.85007680573364,317.83080580068713 M198.85007680573364,317.83080580068713 L209.1870741511147,323.90173659023765 M209.1870741511147,323.90173659023765 L219.94973455446984,330.1478900804178 M219.94973455446984,330.1478900804178 L231.11508258293026,336.5557245649021 M231.11508258293026,336.5557245649021 L242.659034129715,343.1112287260234 M242.659034129715,343.1112287260234 L254.55645790048715,349.7999602195609" stroke="black"  stroke-width="4"  fill="red"/>
<path d="M566.4186790011166,469.08034739450835 L570.3955978372089,461.3641507505386 M220.05092797635604,333.45710699774514 L224.23293700638118,325.28768294070227 M566.4186790011166,469.08034739450835 L577.003446503147,475.16655673700524 M577.003446503147,475.16655673700524 L587.2362017815383,481.1145429148434 M587.2362017815383,481.1145429148434 L597.0957169010089,486.9122081557469 M597.0957169010089,486.9122081557469 L606.5612782170874,492.54764936356554 M606.5612782170874,492.54764936356554 L615.6129182135583,498.0090728141741 M615.6129182135583,498.0090728141741 L624.2310847441901,503.28507758979134 M624.2310847441901,503.28507758979134 L632.3970602477084,508.364417765513 M632.3970602477084,508.364417765513 L640.0927731353142,513.2361720179078 M640.0927731353142,513.2361720179078 L647.3008791397921,517.8897450143079 M647.3008791397921,517.8897450143079 L654.0049258165398,522.3148272299607 M654.0049258165398,522.3148272299607 L660.1892018297278,526.5015017203489 M660.1892018297278,526.5015017203489 L665.838925009384,530.4402614722972 M665.838925009384,530.4402614722972 L670.9401779495416,534.1219461312194 M670.9401779495416,534.1219461312194 L675.4801338041138,537.5378482551976 M675.4801338041138,537.5378482551976 L679.4468491986933,540.6797197622609 M679.4468491986933,540.6797197622609 L682.8295129317352,543.5398037014277 M682.8295129317352,543.5398037014277 L685.6183768930124,546.1108335642787 M685.6183768930124,546.1108335642787 L687.8048242848682,548.386070107654 M687.8048242848682,548.386070107654 L689.3814179998544,550.359324729442 M689.3814179998544,550.359324729442 L690.3419846092297,552.0250052098465 M690.3419846092297,552.0250052098465 L690.6815238470878,553.3781045249314 M690.6815238470878,553.3781045249314 L690.3963375927423,554.4142502666816 M690.3963375927423,554.4142502666816 L689.4840853437676,555.1296889450875 M689.4840853437676,555.1296889450875 L687.9437829391612,555.5213492380831 M687.9437829391612,555.5213492380831 L685.7757350833558,555.5868911119808 M685.7757350833558,555.5868911119808 L682.9817502798819,555.3245808187066 M682.9817502798819,555.3245808187066 L679.5649992579987,554.7334989283274 M679.5649992579987,554.7334989283274 L675.5301062740807,553.8133897652433 M675.5301062740807,553.8133897652433 L670.8831837773021,552.5648149750164 M670.8831837773021,552.5648149750164 L665.6317273561871,550.9890472255388 M665.6317273561871,550.9890472255388 L659.7848022335725,549.0881321239315 M659.7848022335725,549.0881321239315 L653.352913868287,546.8649265139711 M653.352913868287,546.8649265139711 L646.3479784228464,544.3230931223275 M646.3479784228464,544.3230931223275 L638.783459460671,541.466976292601 M638.783459460671,541.466976292601 L630.6742377535348,538.3018336312768 M630.6742377535348,538.3018336312768 L622.0365764796477,534.8336247788902 M622.0365764796477,534.8336247788902 L612.8882161904668,531.0691245598471 M612.8882161904668,531.0691245598471 L603.2482586716294,527.0158807826015 M603.2482586716294,527.0158807826015 L593.1370986485292,522.6822113635988 M593.1370986485292,522.6822113635988 L582.576474605619,518.077122300854 M582.576474605619,518.077122300854 L571.5893765532388,513.2104513554434 M571.5893765532388,513.2104513554434 L560.1999705852834,508.09266786525626 M560.1999705852834,508.09266786525626 L548.4336161916297,502.73495447922295 M548.4336161916297,502.73495447922295 L536.3167073248774,497.1491764558893 M536.3167073248774,497.1491764558893 L523.8766603490537,491.3478153137133 M523.8766603490537,491.3478153137133 L511.14189915928125,485.3439581453411 M511.14189915928125,485.3439581453411 L498.1416308063815,479.151252490016 M498.1416308063815,479.151252490016 L484.905875196372,472.78389858712643 M484.905875196372,472.78389858712643 L471.4653802517521,466.25658701456126 M471.4653802517521,466.25658701456126 L457.8515245528755,459.58445780024414 M457.8515245528755,459.58445780024414 L444.09613772915327,452.78306964101824 M444.09613772915327,452.78306964101824 L430.23152487663026,445.8683195763985 M430.23152487663026,445.8683195763985 L416.290348898361,438.8564620493441 M416.290348898361,438.8564620493441 L402.3054674772999,431.7639921266079 M402.3054674772999,431.7639921266079 L388.30988578159474,424.6076384519913 M388.30988578159474,424.6076384519913 L374.33664799528367,417.40429180049455 M374.33664799528367,417.40429180049455 L360.4187412202069,410.17097220017894 M360.4187412202069,410.17097220017894 L346.5889877946554,402.92475733349625 M346.5889877946554,402.92475733349625 L332.8799285578972,395.68273851643744 M332.8799285578972,395.68273851643744 L319.3237897680286,388.4619921600878 M319.3237897680286,388.4619921600878 L305.9522876497527,381.279476612927 M305.9522876497527,381.279476612927 L292.7966340914119,374.1520382165686 M292.7966340914119,374.1520382165686 L279.8873727599489,367.09631945880056 M279.8873727599489,367.09631945880056 L267.2543353220408,360.1287342582317 M267.2543353220408,360.1287342582317 L254.92654028642733,353.2654131592542 M254.92654028642733,353.2654131592542 L242.93210860447732,346.5221529633392 M242.93210860447732,346.5221529633392 L231.2981983720888,339.91438061311123 M231.2981983720888,339.91438061311123 L220.05092797635604,333.45710699774514 M570.3955978372089,461.3641507505386 L580.9847533301988,467.4436000937241 M580.9847533301988,467.4436000937241 L591.2220317250968,473.384457823534 M591.2220317250968,473.384457823534 L601.0863077627886,479.1745081711728 M601.0863077627886,479.1745081711728 L610.5568591098303,484.8018615635537 M610.5568591098303,484.8018615635537 L619.6135984587448,490.25484870662973 M619.6135984587448,490.25484870662973 L628.2370740175819,495.5219957998526 M628.2370740175819,495.5219957998526 L636.4085217377935,500.59209550914335 M636.4085217377935,500.59209550914335 L644.1098596234848,505.45424360761666 M644.1098596234848,505.45424360761666 L651.3237691277913,510.09784024432037 M651.3237691277913,510.09784024432037 L658.0337128758118,514.5126611686667 M658.0337128758118,514.5126611686667 L664.2240058984794,518.6887433018321 M664.2240058984794,518.6887433018321 L669.8798175426274,522.6166224587778 M669.8798175426274,522.6166224587778 L674.9873259123336,526.2871564644458 M674.9873259123336,526.2871564644458 L679.5335663018845,529.6916520790619 M679.5335663018845,529.6916520790619 L683.5066528856893,532.821925180903 M683.5066528856893,532.821925180903 L686.8957268863778,535.6701994208504 M686.8957268863778,535.6701994208504 L689.6910813213091,538.2292194958532 M689.6910813213091,538.2292194958532 L691.8840306317427,540.4923046451031 M691.8840306317427,540.4923046451031 L693.4671423732319,542.4532796504677 M693.4671423732319,542.4532796504677 L694.4342299857824,544.1065556803649 M694.4342299857824,544.1065556803649 L694.7802768033187,545.4472172161156 M694.7802768033187,545.4472172161156 L694.5015736572952,546.4708303021473 M694.5015736572952,546.4708303021473 L693.5957634483157,547.1737338276853 M693.5957634483157,547.1737338276853 L692.061829122276,547.5528949280483 M692.061829122276,547.5528949280483 L689.9001192708809,547.6058998592141 M689.9001192708809,547.6058998592141 L687.1123699153798,547.3311429537687 M687.1123699153798,547.3311429537687 L683.7017569692944,546.7276985720073 M683.7017569692944,546.7276985720073 L679.6728897940864,545.7953607009265 M679.6728897940864,545.7953607009265 L675.0318691508234,544.5346518881397 M675.0318691508234,544.5346518881397 L669.786174514205,542.9469387610548 M669.786174514205,542.9469387610548 L663.9448575382389,541.034294281164 M663.9448575382389,541.034294281164 L657.5183929232712,538.7995694801948 M657.5183929232712,538.7995694801948 L650.5187401112609,536.2464298555037 M650.5187401112609,536.2464298555037 L642.959292498976,533.3793035700396 M642.959292498976,533.3793035700396 L634.854918783389,530.2034630439855 M634.854918783389,530.2034630439855 L626.2219177430052,526.7248640827845 M626.2219177430052,526.7248640827845 L617.0779896576171,522.9503351843634 M617.0779896576171,522.9503351843634 L607.4422072044455,518.8874263509472 M607.4422072044455,518.8874263509472 L597.3349918953675,514.5444892163116 M597.3349918953675,514.5444892163116 L586.7780340443928,509.93057596641455 M586.7780340443928,509.93057596641455 L575.7943440882021,505.0554945693868 M575.7943440882021,505.0554945693868 L564.4080689545538,499.92977492300264 M564.4080689545538,499.92977492300264 L552.6445604746481,494.56460811328776 M552.6445604746481,494.56460811328776 L540.5302051840628,488.97188372001443 M540.5302051840628,488.97188372001443 L528.0924229926296,483.1640778226633 M528.0924229926296,483.1640778226633 L515.3596122119102,477.15432253584635 M515.3596122119102,477.15432253584635 L502.36097979068654,470.95627174910106 M502.36097979068654,470.95627174910106 L489.12654623280457,464.58413637064604 M489.12654623280457,464.58413637064604 L475.6870657840018,458.05261331578805 M475.6870657840018,458.05261331578805 L462.07389478895243,451.37687083930354 M462.07389478895243,451.37687083930354 L448.3188808670327,444.5724509390016 M448.3188808670327,444.5724509390016 L434.45431326993776,437.6552786710883 M434.45431326993776,437.6552786710883 L420.5128597691313,430.6416060549119 M420.5128597691313,430.6416060549119 L406.52737617175023,423.5479428925274 M406.52737617175023,423.5479428925274 L392.5308742364864,416.3910094123938 M392.5308742364864,416.3910094123938 L378.55639804660814,409.1877007848153 M378.55639804660814,409.1877007848153 L364.6369403425783,401.9550383421824 M364.6369403425783,401.9550383421824 L350.805321328079,394.7101002753273 M350.805321328079,394.7101002753273 L337.09409157671996,387.46997169781866 M337.09409157671996,387.46997169781866 L323.5354817139267,380.25172413532323 M323.5354817139267,380.25172413532323 L310.16121304088034,373.072312029541 M310.16121304088034,373.072312029541 L297.0025076278256,365.9485706616991 M297.0025076278256,365.9485706616991 L284.08991412748384,358.897134666413 M284.08991412748384,358.897134666413 L271.4532738972705,351.93440645226116 M271.4532738972705,351.93440645226116 L259.1216143910805,345.07650407702994 M259.1216143910805,345.07650407702994 L247.12306595807053,338.33921145934454 M247.12306595807053,338.33921145934454 L235.4847969096329,331.73793930041035 M235.4847969096329,331.73793930041035 L224.23293700638118,325.28768294070227 M220.05092797635604,333.45710699774514 L209.2153114227384,327.1648883544671 M209.2153114227384,327.1648883544671 L198.8151962788291,321.0517885089169 M198.8151962788291,321.0517885089169 L188.8732071177884,315.1313432876647 M188.8732071177884,315.1313432876647 L179.41069665088804,309.4165287551642 M179.41069665088804,309.4165287551642 L170.44769437922855,303.9197286823844 M170.44769437922855,303.9197286823844 L162.00287875150565,298.6527123581749 M162.00287875150565,298.6527123581749 L154.09353661788327,293.62660847080696 M154.09353661788327,293.62660847080696 L146.73552014704967,288.851872593699 M146.73552014704967,288.851872593699 L139.9432661007026,284.33829395864973 M139.9432661007026,284.33829395864973 L133.72970782886284,280.09493847846494 M133.72970782886284,280.09493847846494 L128.1063557778375,276.13018935985446 M128.1063557778375,276.13018935985446 L123.08320328198863,272.45168055359517 M123.08320328198863,272.45168055359517 L118.66876866996563,269.06632799514466 M118.66876866996563,269.06632799514466 L114.87010306052645,265.98030935373146 M114.87010306052645,265.98030935373146 L111.69277077390689,263.1990605728468 M111.69277077390689,263.1990605728468 L109.14087877515533,260.72726985739246 M109.14087877515533,260.72726985739246 L107.2170808331461,258.5688882258375 M107.2170808331461,258.5688882258375 L105.92264012368219,256.72714582921276 M105.92264012368219,256.72714582921276 L105.25737254831586,255.20454174864557 M105.25737254831586,255.20454174864557 L105.21972319668134,254.00280462258934 M105.21972319668134,254.00280462258934 L105.80680315442845,253.12300666818265 M105.80680315442845,253.12300666818265 L107.01441307860097,252.56550834006367 M107.01441307860097,252.56550834006367 L108.83706572456401,252.32995871669715 M108.83706572456401,252.32995871669715 L111.26799828038565,252.41531808204525 M111.26799828038565,252.41531808204525 L114.29926920750273,252.8199403000367 M114.29926920750273,252.8199403000367 L117.92175495520559,253.54149276741396 M117.92175495520559,253.54149276741396 L122.12521549245344,254.57699955829338 M122.12521549245344,254.57699955829338 L126.89832011848557,255.92291694499198 M126.89832011848557,255.92291694499198 L132.22866293839672,257.57508739575457 M132.22866293839672,257.57508739575457 L138.10291774328454,259.5287634767402 M138.10291774328454,259.5287634767402 L144.50669667417935,261.7786812567205 M144.50669667417935,261.7786812567205 L151.4247774721964,264.3190057896999 M151.4247774721964,264.3190057896999 L158.84103251376536,267.1434012874541 M158.84103251376536,267.1434012874541 L166.73851811150251,270.24505144883784 M166.73851811150251,270.24505144883784 L175.0994947285585,273.61665146167604 M175.0994947285585,273.61665146167604 L183.90554727135543,277.25042469149645 M183.90554727135543,277.25042469149645 L193.13744901248918,281.1382320982581 M193.13744901248918,281.1382320982581 L202.77542850964863,285.27143464732825 M202.77542850964863,285.27143464732825 L212.79905577285217,289.64102628975814 M212.79905577285217,289.64102628975814 L223.1873341285363,294.2376788945633 M223.1873341285363,294.2376788945633 L233.91873250087303,299.05165555830223 M233.91873250087303,299.05165555830223 L244.97125285999988,304.0728955040856 M244.97125285999988,304.0728955040856 L256.3224013558482,309.2910444794137 M256.3224013558482,309.2910444794137 L267.9493261171228,314.69540725426293 M267.9493261171228,314.69540725426293 L279.8287464823852,320.2751048556899 M279.8287464823852,320.2751048556899 L291.9370674935338,326.0188628061348 M291.9370674935338,326.0188628061348 L304.25041779660893,331.91527395260374 M304.25041779660893,331.91527395260374 L316.74461074603136,337.9526926701366 M316.74461074603136,337.9526926701366 L329.3952347087213,344.11922549362214 M329.3952347087213,344.11922549362214 L342.17768574072693,350.40279628482085 M342.17768574072693,350.40279628482085 L355.0672004189529,356.7911891030924 M355.0672004189529,356.7911891030924 L368.0388942602892,363.2720307277833 M368.0388942602892,363.2720307277833 L381.0677179336366,369.8327675186824 M381.0677179336366,369.8327675186824 L394.12862547400493,376.46076532779574 M394.12862547400493,376.46076532779574 L407.1964831841418,383.14325862672973 M407.1964831841418,383.14325862672973 L420.2462348125548,389.86740587287886 M420.2462348125548,389.86740587287886 L433.25270221737935,396.6202822646035 M433.25270221737935,396.6202822646035 L446.19090526341415,403.3889389443372 M446.19090526341415,403.3889389443372 L459.03591954505873,410.16034194088985 M459.03591954505873,410.16034194088985 L471.7629118947,416.92141625439444 M471.7629118947,416.92141625439444 L484.34721032061157,423.6591727566234 M484.34721032061157,423.6591727566234 L496.76434210954505,430.3605373150004 M496.76434210954505,430.3605373150004 L508.99008601027197,437.0125102919015 M508.99008601027197,437.0125102919015 L521.00038215234,443.6021573368052 M521.00038215234,443.6021573368052 L532.7716277990386,450.1165003242681 M532.7716277990386,450.1165003242681 L544.28034455645,456.54279813491615 M544.28034455645,456.54279813491615 L555.5035631403638,462.86829429435926 M555.5035631403638,462.86829429435926 L566.4186790011166,469.08034739450835 M224.23293700638118,325.28768294070227 L213.3925111281245,319.002980187047 M213.3925111281245,319.002980187047 L202.98737911373638,312.89787688815113 M202.98737911373638,312.89787688815113 L193.04017722655038,306.98588814040374 M193.04017722655038,306.98588814040374 L183.5722708801133,301.27997022057843 M183.5722708801133,301.27997022057843 L174.60370285308272,295.79248414783785 M174.60370285308272,295.79248414783785 L166.15316502837936,290.5351765565803 M166.15316502837936,290.5351765565803 L158.237956564088,285.51915310872045 M158.237956564088,285.51915310872045 L150.87394618080225,280.75484351180916 M150.87394618080225,280.75484351180916 L144.07558151948763,276.25201505457306 M144.07558151948763,276.25201505457306 L137.85581125366093,272.01970565876593 M137.85581125366093,272.01970565876593 L132.2261612930377,268.06627250117555 M132.2261612930377,268.06627250117555 L127.19663431861522,264.39932589004724 M127.19663431861522,264.39932589004724 L122.77576915513538,261.0257528762808 M122.77576915513538,261.0257528762808 L118.97062875403526,257.9517026116877 M118.97062875403526,257.9517026116877 L115.78679415842714,255.18258096383914 M115.78679415842714,255.18258096383914 L113.22838169403116,252.7230599866162 M113.22838169403116,252.7230599866162 L111.29806162472033,250.57705336629255 M111.29806162472033,250.57705336629255 L109.99710626668309,248.74777217518647 M109.99710626668309,248.74777217518647 L109.3253599121112,247.23766856616885 M109.3253599121112,247.23766856616885 L109.2812618291087,246.04846905185167 M109.2812618291087,246.04846905185167 L109.86195599093168,245.18120212924453 M109.86195599093168,245.18120212924453 L111.06324645782144,244.63620696288302 M111.06324645782144,244.63620696288302 L112.87965403367832,244.41310888801917 M112.87965403367832,244.41310888801917 L115.30442373665414,244.51085038771288 M115.30442373665414,244.51085038771288 L118.32964561286366,244.92773191281367 M118.32964561286366,244.92773191281367 L121.94619852103807,245.66141783758803 M121.94619852103807,245.66141783758803 L126.14385403090353,246.70890192498598 M126.14385403090353,246.70890192498598 L130.91129281216388,248.0666273291767 M130.91129281216388,248.0666273291767 L136.2361292546782,249.73037424065444 M136.2361292546782,249.73037424065444 L142.1050191279238,251.6954217818291 M142.1050191279238,251.6954217818291 L148.50362303470217,253.9564619277092 M148.50362303470217,253.9564619277092 L155.4166899933207,256.50762670461745 M155.4166899933207,256.50762670461745 L162.8281210283683,259.34258163146393 M162.8281210283683,259.34258163146393 L170.72100979916524,262.4544629481341 M170.72100979916524,262.4544629481341 L179.07757761876888,265.8359734997761 M179.07757761876888,265.8359734997761 L187.87941755690565,269.47932891855595 M187.87941755690565,269.47932891855595 L197.1073671845249,273.37631801434907 M197.1073671845249,273.37631801434907 L206.74160538798037,277.51830627199735 M206.74160538798037,277.51830627199735 L216.76172783597514,281.8963043517253 M216.76172783597514,281.8963043517253 L227.14674401770316,286.5009686799403 M227.14674401770316,286.5009686799403 L237.87512860802065,291.32248257707096 M237.87512860802065,291.32248257707096 L248.92488883259364,296.35083697037925 M248.92488883259364,296.35083697037925 L260.27353564948777,301.57564311418275 M260.27353564948777,301.57564311418275 L271.8982027908247,306.9862263847601 M271.8982027908247,306.9862263847601 L283.77566965941975,312.5715995226737 M283.77566965941975,312.5715995226737 L295.8822884801678,318.32057535708634 M295.8822884801678,318.32057535708634 L308.19420941210365,324.2217267522645 M308.19420941210365,324.2217267522645 L320.68724867601424,330.26333503108566 M320.68724867601424,330.26333503108566 L333.33699599801287,336.43358579898785 M333.33699599801287,336.43358579898785 L346.11884939196204,342.72033178789377 M346.11884939196204,342.72033178789377 L359.0080463026849,349.11137313252505 M359.0080463026849,349.11137313252505 L371.9796843527075,355.5943428821852 M371.9796843527075,355.5943428821852 L385.00876953697707,362.1566513176173 M385.00876953697707,362.1566513176173 L398.07020048181687,368.78567253833813 M398.07020048181687,368.78567253833813 L411.13887853641836,375.4686820143716 M411.13887853641836,375.4686820143716 L424.1896738261207,382.19279482620584 M424.1896738261207,382.19279482620584 L437.19753352848386,388.94509611349974 M437.19753352848386,388.94509611349974 L450.13736611561137,395.712638769954 M450.13736611561137,395.712638769954 L462.9842811298006,402.48236902636916 M462.9842811298006,402.48236902636916 L475.7134048272152,409.2412794425896 M475.7134048272152,409.2412794425896 L488.3001349605164,415.9763195768221 M488.3001349605164,415.9763195768221 L500.7199580242042,422.67444176406923 M500.7199580242042,422.67444176406923 L512.9486480749079,429.3226519802825 M512.9486480749079,429.3226519802825 L524.9621765642711,435.9080004118768 M524.9621765642711,435.9080004118768 L536.7368252238025,442.4176036997711 M536.7368252238025,442.4176036997711 L548.2492199738407,448.8386202939959 M548.2492199738407,448.8386202939959 L559.4763850001499,455.1583028794859 M559.4763850001499,455.1583028794859 L570.3955978372089,461.3641507505386 M220.34992892576446,333.5741833660396 L224.53176203478301,325.4051509792343 M566.151317585296,468.9756562932295 L570.1283962777811,461.25908872963254 M220.34992892576446,333.5741833660396 L209.53220309259137,327.29240874335017 M209.53220309259137,327.29240874335017 L199.14919546748,321.18942495679715 M199.14919546748,321.18942495679715 L189.2234891673,315.27874240210264 M189.2234891673,315.27874240210264 L179.7764027283555,309.5733161924688 M179.7764027283555,309.5733161924688 L170.82794424173642,304.08551555313016 M170.82794424173642,304.08551555313016 L162.39674590799115,298.8270810081444 M162.39674590799115,298.8270810081444 L154.50007599009484,293.80912680194507 M154.50007599009484,293.80912680194507 L147.15377010107966,289.0420969816856 M147.15377010107966,289.0420969816856 L140.37222270727136,284.53575224498803 M140.37222270727136,284.53575224498803 L134.16839114510935,280.29917246437816 M134.16839114510935,280.29917246437816 L128.5537213361859,276.3406945262546 M128.5537213361859,276.3406945262546 L123.5382233165862,272.66796780018757 M123.5382233165862,272.66796780018757 L119.1304049986,269.28788682542927 M119.1304049986,269.28788682542927 L115.33731264787127,266.2066266726132 M115.33731264787127,266.2066266726132 L112.16449196234686,263.42960575085 M112.16449196234686,263.42960575085 L109.6160727107096,260.9615271081793 M109.6160727107096,260.9615271081793 L107.69470309167349,258.8063318840403 M107.69470309167349,258.8063318840403 L106.40162902803536,256.96723370893375 M106.40162902803536,256.96723370893375 L105.73667359338106,255.44672654917133 M105.73667359338106,255.44672654917133 L105.69834637490953,254.24658101200447 M105.69834637490953,254.24658101200447 L106.28372267244504,253.36784243092728 M106.28372267244504,253.36784243092728 L107.48860554764065,252.81084982484873 M107.48860554764065,252.81084982484873 L109.3075430707222,252.5752999335246 M109.3075430707222,252.5752999335246 L111.73377446721065,252.66014825547677 M111.73377446721065,252.66014825547677 L114.75941707483133,253.06373249850088 M114.75941707483133,253.06373249850088 L118.37533839348498,253.7837369357573 M118.37533839348498,253.7837369357573 L122.57132786896352,254.8172137459813 M122.57132786896352,254.8172137459813 L127.33605468170532,256.1605971632378 M127.33605468170532,256.1605971632378 L132.6571879207154,257.809762068315 M132.6571879207154,257.809762068315 L138.52135225229057,259.75996602661655 M138.52135225229057,259.75996602661655 L144.91426209564014,262.0059277025082 M144.91426209564014,262.0059277025082 L151.8206820298031,264.541870894189 M151.8206820298031,264.541870894189 L159.224518372585,267.36144718015424 M159.224518372585,267.36144718015424 L167.10887919365751,270.457849080568 M167.10887919365751,270.457849080568 L175.45603756619357,273.823790795121 M175.45603756619357,273.823790795121 L184.24758069119645,277.4515196139882 M184.24758069119645,277.4515196139882 L193.46437785808575,281.3328768323773 M193.46437785808575,281.3328768323773 L203.08663883926448,285.4592678379138 M203.08663883926448,285.4592678379138 L213.0939897351268,289.8217202237615 M213.0939897351268,289.8217202237615 L223.46545104680814,294.4108952770958 M223.46545104680814,294.4108952770958 L234.1795455658571,299.21706628761046 M234.1795455658571,299.21706628761046 L245.21427179767744,304.2301937230113 M245.21427179767744,304.2301937230113 L256.54722536359094,309.439911195757 M256.54722536359094,309.439911195757 L268.1555492051932,314.8356083076894 M268.1555492051932,314.8356083076894 L280.0160316942528,320.40636058395086 M280.0160316942528,320.40636058395086 L292.1050710191769,326.1409558224538 M292.1050710191769,326.1409558224538 L304.39884486838423,332.02799457706254 M304.39884486838423,332.02799457706254 L316.87321404379605,338.05579543975415 M316.87321404379605,338.05579543975415 L329.50377739436806,344.2125151233103 M329.50377739436806,344.2125151233103 L342.2659972401465,350.4861597333857 M342.2659972401465,350.4861597333857 L355.13513711059863,356.8644441233477 M355.13513711059863,356.8644441233477 L368.0863308883004,363.3350281708333 M368.0863308883004,363.3350281708333 L381.09456633404136,369.8854019631286 M381.09456633404136,369.8854019631286 L394.1348620991414,376.50292638241393 M394.1348620991414,376.50292638241393 L407.1821104806776,383.1748520354345 M407.1821104806776,383.1748520354345 L420.21121890453935,389.8884026716219 M420.21121890453935,389.8884026716219 L433.1971553214554,396.6306314091891 M433.1971553214554,396.6306314091891 L446.11493144580777,403.3885846211222 M446.11493144580777,403.3885846211222 L458.9396485225019,410.1492655875201 M458.9396485225019,410.1492655875201 L471.6464766672682,416.8996652997644 M471.6464766672682,416.8996652997644 L484.21083404668116,423.62676151088846 M484.21083404668116,423.62676151088846 L496.608259733767,430.3175296817717 M496.608259733767,430.3175296817717 L508.81455326731134,436.95896039653803 M508.81455326731134,436.95896039653803 L520.8057482084894,443.53810870900224 M520.8057482084894,443.53810870900224 L532.5581769562882,450.04213108082985 M532.5581769562882,450.04213108082985 L544.0485283390956,456.4581452180732 M544.0485283390956,456.4581452180732 L555.2537524415733,462.7735418821249 M555.2537524415733,462.7735418821249 L566.151317585296,468.9756562932295 M224.53176203478301,325.4051509792343 L213.70923528597768,319.13087917697396 M213.70923528597768,319.13087917697396 L203.32121883870883,313.0358781958633 M203.32121883870883,313.0358781958633 L193.39030910418967,307.13363779123506 M193.39030910418967,307.13363779123506 L183.93783628800986,301.4370927450811 M183.93783628800986,301.4370927450811 L174.98382119706184,295.9585902341909 M174.98382119706184,295.9585902341909 L166.54690974485936,290.7098480932662 M166.54690974485936,290.7098480932662 L158.64438464894175,285.70195678978496 M158.64438464894175,285.70195678978496 L151.29209433986028,280.9453369322372 M151.29209433986028,280.9453369322372 L144.50444535477436,276.44972413488574 M144.50444535477436,276.44972413488574 L138.29441344457882,272.2241703227011 M138.29441344457882,272.2241703227011 L132.67345377647217,268.2769906555669 M132.67345377647217,268.2769906555669 L127.6515943453565,264.61580385248436 M127.6515943453565,264.61580385248436 L123.23735860174315,261.24747984800877 M123.23735860174315,261.24747984800877 L119.43780219250561,258.1781708809889 M119.43780219250561,258.1781708809889 L116.25848255264043,255.41326103287872 M116.25848255264043,255.41326103287872 L113.70355846926316,252.95742894456566 M113.70355846926316,252.95742894456566 L111.77567739325298,250.81458538753816 M111.77567739325298,250.81458538753816 L110.47609933536103,248.98793065078627 M110.47609933536103,248.98793065078627 L109.80467566793612,247.47990336587793 M109.80467566793612,247.47990336587793 L109.75991510638573,246.2922776946163 M109.75991510638573,246.2922776946163 L110.33891102804046,245.42604675655167 M110.33891102804046,245.42604675655167 L111.53747496142472,244.88154799465417 M111.53747496142472,244.88154799465417 L113.35017742330973,244.65842378743258 M113.35017742330973,244.65842378743258 L115.77026543795085,244.75561754895523 M115.77026543795085,244.75561754895523 L118.78986874117152,245.17145242612713 M118.78986874117152,245.17145242612713 L122.39987640544592,245.90357641287244 M122.39987640544592,245.90357641287244 L126.59006042077192,246.94901670112608 M126.59006042077192,246.94901670112608 L131.34913020149986,248.3041670573174 M131.34913020149986,248.3041670573174 L136.6647562495229,249.9649064211634 M136.6647562495229,249.9649064211634 L142.5235832482254,251.92645287963626 M142.5235832482254,251.92645287963626 L148.91130706741296,254.18353012117495 M148.91130706741296,254.18353012117495 L155.81274009834664,256.73028553741193 M155.81274009834664,256.73028553741193 L163.21176945751148,259.5603991742386 M163.21176945751148,259.5603991742386 L171.09152159619623,262.6670269295744 M171.09152159619623,262.6670269295744 L179.43425905100253,266.0428744299015 M179.43425905100253,266.0428744299015 L188.22163397376266,269.68014884942914 M188.22163397376266,269.68014884942914 L197.43444733927606,273.57069499359886 M197.43444733927606,273.57069499359886 L207.05297286865516,277.70587979249314 M207.05297286865516,277.70587979249314 L217.0568243724507,282.07672550011534 M217.0568243724507,282.07672550011534 L227.42502855519223,286.67385630910843 M227.42502855519223,286.67385630910843 L238.13613270326522,291.4875638302064 M238.13613270326522,291.4875638302064 L249.16810302998442,296.507794715612 M249.16810302998442,296.507794715612 L260.49853999470065,301.7241915629727 M260.49853999470065,301.7241915629727 L272.1046283843078,307.1260671712622 M272.1046283843078,307.1260671712622 L283.9631416725966,312.70251862198126 M283.9631416725966,312.70251862198126 L296.0504814152239,318.44232371144386 M296.0504814152239,318.44232371144386 L308.34284679152177,324.3340630523308 M308.34284679152177,324.3340630523308 L320.81604534134345,330.3660794097312 M320.81604534134345,330.3660794097312 L333.4457335656025,336.52648981342566 M333.4457335656025,336.52648981342566 L346.2073751948635,342.8032939544619 M346.2073751948635,342.8032939544619 L359.0761977790512,349.1842228279783 M359.0761977790512,349.1842228279783 L372.0273360540492,355.65691026604003 M372.0273360540492,355.65691026604003 L385.03583265816815,362.20885330540744 M385.03583265816815,362.20885330540744 L398.07663239620865,368.8274318636491 M398.07663239620865,368.8274318636491 L411.12468155593876,375.4998837929779 M411.12468155593876,375.4998837929779 L424.1548687175707,382.2133783379117 M424.1548687175707,382.2133783379117 L437.14219570438377,388.9550114003851 M437.14219570438377,388.9550114003851 L450.06159854236535,395.7118737412736 M450.06159854236535,395.7118737412736 L462.8881768603907,402.470906298722 M462.8881768603907,402.470906298722 L475.5971692170285,409.2191450833363 M475.5971692170285,409.2191450833363 L488.16395498326494,415.9435076376648 M488.16395498326494,415.9435076376648 L500.56406781629664,422.6310384014153 M500.56406781629664,422.6310384014153 L512.7733029842215,429.2687120974063 M512.7733029842215,429.2687120974063 L524.7676884041555,435.8436117545545 M524.7676884041555,435.8436117545545 L536.5235887723679,442.3428149335653 M536.5235887723679,442.3428149335653 L548.0175755104185,448.7535994120489 M548.0175755104185,448.7535994120489 L559.22670357573,455.0632134364884 M559.22670357573,455.0632134364884 L570.1283962777811,461.25908872963254 M566.151317585296,468.9756562932295 L576.7190106845733,475.0520840193944 M576.7190106845733,475.0520840193944 L586.9352002304837,480.9904852727538 M586.9352002304837,480.9904852727538 L596.7786599238824,486.77882742186426 M596.7786599238824,486.77882742186426 L606.2288221020524,492.40509530085745 M606.2288221020524,492.40509530085745 L615.2655976893076,497.85766273761266 M615.2655976893076,497.85766273761266 L623.8695990293626,503.1250488272853 M623.8695990293626,503.1250488272853 L632.0220668551241,508.1960471919577 M632.0220668551241,508.1960471919577 L639.704960423495,513.0597750784893 M639.704960423495,513.0597750784893 L646.9010339366727,517.7056490777611 M646.9010339366727,517.7056490777611 L653.5937208718932,522.1233795187657 M653.5937208718932,522.1233795187657 L659.7674757469855,526.3030784663315 M659.7674757469855,526.3030784663315 L665.407487814185,530.2351987043082 M665.407487814185,530.2351987043082 L670.4999210283199,533.9106257114593 M670.4999210283199,533.9106257114593 L675.0318587405253,537.3207080992481 M675.0318587405253,537.3207080992481 L678.9914886314664,540.4571843810213 M678.9914886314664,540.4571843810213 L682.3679731106648,543.3122807351419 M682.3679731106648,543.3122807351419 L685.1515764206717,545.8787804841525 M685.1515764206717,545.8787804841525 L687.3337423095584,548.149955816034 M687.3337423095584,548.149955816034 L688.9070749334473,550.1196184168803 M688.9070749334473,550.1196184168803 L689.8652976853552,551.7822042115665 M689.8652976853552,551.7822042115665 L690.2035028621432,553.1327138172164 M690.2035028621432,553.1327138172164 L689.9180631676129,554.1667700501857 M689.9180631676129,554.1667700501857 L689.0065559847719,554.8806377958399 M689.0065559847719,554.8806377958399 L687.4680300774272,555.2712863059248 M687.4680300774272,555.2712863059248 L685.3028037013336,555.3363154046579 M685.3028037013336,555.3363154046579 L682.5126598275792,555.0740656119599 M682.5126598275792,555.0740656119599 L679.1008211326488,554.483557088538 M679.1008211326488,554.483557088538 L675.0719066759001,553.5645979494502 M675.0719066759001,553.5645979494502 L670.4319629534232,552.3176889183476 M670.4319629534232,552.3176889183476 L665.1885549230234,550.7441651208253 M665.1885549230234,550.7441651208253 L659.350699297419,548.8460667933757 M659.350699297419,548.8460667933757 L652.9288549440296,546.626223819685 M652.9288549440296,546.626223819685 L645.9350035474095,544.0882804485229 M645.9350035474095,544.0882804485229 L638.3825212467256,541.2366100189599 M638.3825212467256,541.2366100189599 L630.286294564267,538.0764513445963 M630.286294564267,538.0764513445963 L621.662582038562,534.6137506053449 M621.662582038562,534.6137506053449 L612.5290807292863,530.8552808662737 M612.5290807292863,530.8552808662737 L602.9048268201809,526.8085871150879 M602.9048268201809,526.8085871150879 L592.8102362443469,522.4819319423257 M592.8102362443469,522.4819319423257 L582.2669912432482,517.8843696995284 M582.2669912432482,517.8843696995284 L571.2980198505126,513.0256693001381 M571.2980198505126,513.0256693001381 L559.927498127074,507.91631831039314 M559.927498127074,507.91631831039314 L548.1807122665538,502.5674812813418 M548.1807122665538,502.5674812813418 L536.083993618928,496.9909770563332 M536.083993618928,496.9909770563332 L523.664732632053,491.1992505261946 M523.664732632053,491.1992505261946 L510.95129787034966,485.20540981473454 M510.95129787034966,485.20540981473454 L497.97281902904774,479.0230649239874 M497.97281902904774,479.0230649239874 L484.7593233979263,472.66639286585536 M484.7593233979263,472.66639286585536 L471.34147940235914,466.150062669292 M471.34147940235914,466.150062669292 L457.7505449635537,459.48915177654857 M457.7505449635537,459.48915177654857 L444.0183652352795,452.6992232437115 M444.0183652352795,452.6992232437115 L430.1771790659508,445.7961456809749 M430.1771790659508,445.7961456809749 L416.2595672093355,438.7961329899161 M416.2595672093355,438.7961329899161 L402.2983127110522,431.7156439360048 M402.2983127110522,431.7156439360048 L388.32639629010123,424.57139107712175 M388.32639629010123,424.57139107712175 L374.37677949158103,417.3802240845329 M374.37677949158103,417.3802240845329 L360.4823920802819,410.15912916106873 M360.4823920802819,410.15912916106873 L346.67598409183984,402.9251572732615 M346.67598409183984,402.9251572732615 L332.99007593365525,395.69538120733614 M332.99007593365525,395.69538120733614 L319.456775598552,388.4868173947419 M319.456775598552,388.4868173947419 L306.10779046462886,381.31641785365633 M306.10779046462886,381.31641785365633 L292.9742506145858,374.2009846784157 M292.9742506145858,374.2009846784157 L280.08665134158923,367.15713311264136 M280.08665134158923,367.15713311264136 L267.4747776610219,360.2012524926999 M267.4747776610219,360.2012524926999 L255.1675792244206,353.3494342119124 M255.1675792244206,353.3494342119124 L243.19313766859392,346.6174530281149 M243.19313766859392,346.6174530281149 L231.5785645396739,340.0207086443223 M231.5785645396739,340.0207086443223 L220.34992892576446,333.5741833660396 M570.1283962777811,461.25908872963254 L580.700433627045,467.3288104190478 M580.700433627045,467.3288104190478 L590.9211756205762,473.26007217948774 M590.9211756205762,473.26007217948774 L600.7694258599007,479.04076749570316 M600.7694258599007,479.04076749570316 L610.2244961972942,484.6590475545342 M610.2244961972942,484.6590475545342 L619.2664001567472,490.10314805917625 M619.2664001567472,490.10314805917625 L627.875702169486,495.3616902958964 M627.875702169486,495.3616902958964 L636.0336335869897,500.42346263087535 M636.0336335869897,500.42346263087535 L643.7221425741318,505.27762100803665 M643.7221425741318,505.27762100803665 L650.9239745813675,509.9135351867977 M650.9239745813675,509.9135351867977 L657.622585748008,514.3209980523416 M657.622585748008,514.3209980523416 L663.8023487535105,518.4900997137856 M663.8023487535105,518.4900997137856 L669.4484387678203,522.4113782357413 M669.4484387678203,522.4113782357413 L674.5470807475743,526.0756949853758 M674.5470807475743,526.0756949853758 L679.0853111618369,529.4743777026531 M679.0853111618369,529.4743777026531 L683.0513210574582,532.5992410360509 M683.0513210574582,532.5992410360509 L686.4342053869007,535.442546612461 M686.4342053869007,535.442546612461 L689.2242878825116,537.9970776560067 M689.2242878825116,537.9970776560067 L691.4129450868516,540.2561211805921 M691.4129450868516,540.2561211805921 L692.992766602669,542.2135354792133 M692.992766602669,542.2135354792133 L693.9574988336544,543.8637588668946 M693.9574988336544,543.8637588668946 L694.3022201485037,545.2018175802955 M694.3022201485037,545.2018175802955 L694.0232335088264,546.2233950876644 M694.0232335088264,546.2233950876644 L693.1181576576697,546.9247482623232 M693.1181576576697,546.9247482623232 L691.5860085806892,547.3028846165437 M691.5860085806892,547.3028846165437 L689.4270902362,547.3554310380066 M689.4270902362,547.3554310380066 L686.6431908049841,547.0807215601021 M686.6431908049841,547.0807215601021 L683.2374798757837,546.4778710629387 M683.2374798757837,546.4778710629387 L679.2145630922487,545.5466930346256 M679.2145630922487,545.5466930346256 L674.5805097030049,544.2877146089022 M674.5805097030049,544.2877146089022 L669.3428536769792,542.7022654695377 M669.3428536769792,542.7022654695377 L663.510597384648,540.7924352562163 M663.510597384648,540.7924352562163 L657.0942052892068,538.5610691426564 M657.0942052892068,538.5610691426564 L650.1055896907018,536.0118619743303 M650.1055896907018,536.0118619743303 L642.5581890084836,533.1491890214834 M642.5581890084836,533.1491890214834 L634.4668209924974,529.9783389330898 M634.4668209924974,529.9783389330898 L625.8477512139208,526.5052716110088 M625.8477512139208,526.5052716110088 L616.718655413892,522.7368020350293 M616.718655413892,522.7368020350293 L607.098588460192,518.6804480077076 M607.098588460192,518.6804480077076 L597.007916633627,514.3445527418569 M597.007916633627,514.3445527418569 L586.4683413591519,509.7381643087205 M586.4683413591519,509.7381643087205 L575.5027715319738,504.8710905293894 M575.5027715319738,504.8710905293894 L564.1353848557847,499.7538111978918 M564.1353848557847,499.7538111978918 L552.3914306022167,494.3975281737377 M552.3914306022167,494.3975281737377 L540.2972613529382,488.8140782461558 M540.2972613529382,488.8140782461558 L527.8802512420976,483.01593535081537 M527.8802512420976,483.01593535081537 L515.1687633367893,477.01621245138 M515.1687633367893,477.01621245138 L502.19192739057144,470.8285201642398 M502.19192739057144,470.8285201642398 L488.97975625330616,464.4670777139382 M488.97975625330616,464.4670777139382 L475.5629202335748,457.94654058724797 M475.5629202335748,457.94654058724797 L461.97266927894816,451.2820227626964 M461.97266927894816,451.2820227626964 L448.2408618522868,444.4890649134836 M448.2408618522868,444.4890649134836 L434.39972081396127,437.5835722275799 M434.39972081396127,437.5835722275799 L420.48182701177154,430.58175053492494 M420.48182701177154,430.58175053492494 L406.5199787502585,423.500065951665 M406.5199787502585,423.500065951665 L392.5471437402914,416.3552314331344 M392.5471437402914,416.3552314331344 L378.5962882218922,409.16410528884927 M378.5962882218922,409.16410528884927 L364.70035011184166,401.9436692633895 M364.70035011184166,401.9436692633895 L350.89208225271045,394.71097049504226 M350.89208225271045,394.71097049504226 L337.2040061320156,387.4830828002178 M337.2040061320156,387.4830828002178 L323.66824025683763,380.2770134166835 M323.66824025683763,380.2770134166835 L310.3164940115276,373.109710462839 M310.3164940115276,373.109710462839 L297.1799063771737,365.997968237537 M297.1799063771737,365.997968237537 L284.28898133755604,358.95839170508395 M284.28898133755604,358.95839170508395 L271.67351142161255,352.0073595272082 M271.67351142161255,352.0073595272082 L259.3624548904115,345.1609507362097 M259.3624548904115,345.1609507362097 L247.38390330645404,338.43492655278044 M247.38390330645404,338.43492655278044 L235.76497941687472,331.844671051264 M235.76497941687472,331.844671051264 L224.53176203478301,325.4051509792343" stroke="black"  stroke-width="4"  fill="red"/></svg>